<svg width="60" height="60" viewBox="0 0 60 60" fill="none" xmlns="http://www.w3.org/2000/svg">
<g clip-path="url(#clip0_779_533)">
<path d="M25.6092 15C21.9682 15 18.409 16.0797 15.3817 18.1025C12.3544 20.1253 9.99484 23.0004 8.6015 26.3642C7.20817 29.728 6.84361 33.4294 7.55393 37.0004C8.26424 40.5714 10.0175 43.8516 12.5921 46.4261C15.1666 49.0006 18.4468 50.7539 22.0178 51.4642C25.5888 52.1746 29.2902 51.81 32.654 50.4167C36.0178 49.0233 38.8929 46.6638 40.9157 43.6365C42.9385 40.6091 44.0182 37.0499 44.0182 33.409C44.0179 28.5267 42.0782 23.8445 38.626 20.3922C35.1737 16.9399 30.4915 15.0003 25.6092 15Z" stroke="#F9FAFB" stroke-width="6" stroke-miterlimit="10"/>
<path d="M39.3433 47.1433L52.1999 60" stroke="#F9FAFB" stroke-width="6" stroke-miterlimit="10" stroke-linecap="round"/>
</g>
<defs>
<clipPath id="clip0_779_533">
<rect width="60" height="60" fill="white"/>
</clipPath>
</defs>
</svg>
