<svg width="100" height="100" viewBox="0 0 100 100" fill="none" xmlns="http://www.w3.org/2000/svg">
<g clip-path="url(#clip0_779_533)">
<path d="M42.6817 25C36.6134 25 30.6814 26.7994 25.6358 30.1708C20.5903 33.5421 16.6577 38.3339 14.3355 43.9403C12.0133 49.5466 11.4057 55.7157 12.5896 61.6673C13.7734 67.619 16.6956 73.0859 20.9865 77.3768C25.2774 81.6677 30.7443 84.5899 36.696 85.7737C42.6476 86.9576 48.8167 86.35 54.423 84.0278C60.0293 81.7056 64.8212 77.773 68.1925 72.7274C71.5638 67.6819 73.3633 61.7499 73.3633 55.6816C73.3628 47.5445 70.1301 39.7408 64.3763 33.987C58.6225 28.2332 50.8188 25.0005 42.6817 25Z" stroke="#F9FAFB" stroke-width="6" stroke-miterlimit="10"/>
<path d="M65.5723 78.5723L87 100" stroke="#F9FAFB" stroke-width="6" stroke-miterlimit="10" stroke-linecap="round"/>
</g>
<defs>
<clipPath id="clip0_779_533">
<rect width="100" height="100" fill="white"/>
</clipPath>
</defs>
</svg>
