<svg width="46" height="49" viewBox="0 0 46 49" fill="none" xmlns="http://www.w3.org/2000/svg">
<path d="M23.3574 0.861328C10.925 0.861328 0.793945 11.4474 0.793945 24.4384C0.793945 37.4293 10.925 48.0154 23.3574 48.0154C35.7899 48.0154 45.9209 37.4293 45.9209 24.4384C45.9209 11.4474 35.7899 0.861328 23.3574 0.861328ZM30.9388 29.8611C31.5931 30.5448 31.5931 31.6765 30.9388 32.3603C30.6003 32.7139 30.1716 32.879 29.7429 32.879C29.3142 32.879 28.8855 32.7139 28.5471 32.3603L23.3574 26.9375L18.1678 32.3603C17.8294 32.7139 17.4007 32.879 16.972 32.879C16.5433 32.879 16.1146 32.7139 15.7761 32.3603C15.1218 31.6765 15.1218 30.5448 15.7761 29.8611L20.9657 24.4384L15.7761 19.0157C15.1218 18.3319 15.1218 17.2002 15.7761 16.5165C16.4305 15.8328 17.5135 15.8328 18.1678 16.5165L23.3574 21.9392L28.5471 16.5165C29.2014 15.8328 30.2844 15.8328 30.9388 16.5165C31.5931 17.2002 31.5931 18.3319 30.9388 19.0157L25.7492 24.4384L30.9388 29.8611Z" fill="#BDC2D0"/>
</svg>
