<svg width="1063" height="200" viewBox="0 0 1063 200" fill="none" xmlns="http://www.w3.org/2000/svg">
<path fill-rule="evenodd" clip-rule="evenodd" d="M0 15.0199C0 7.87888 7.26909 3.03924 13.8574 5.79385L44.2917 18.5185C88.5833 37.037 177.167 74.0741 265.75 77.7778C354.333 81.4815 442.917 51.8519 531.5 66.6667C620.083 81.4815 708.667 140.741 797.25 144.444C885.833 148.148 974.417 96.2963 1018.71 70.3704L1047.95 53.2549C1054.61 49.3527 1063 54.1605 1063 61.8851V190C1063 195.523 1058.52 200 1053 200H1018.71C974.417 200 885.833 200 797.25 200C708.667 200 620.083 200 531.5 200C442.917 200 354.333 200 265.75 200C177.167 200 88.5833 200 44.2917 200H10C4.47716 200 0 195.523 0 190V15.0199Z" fill="#4869F6" fill-opacity="0.1"/>
<path fill-rule="evenodd" clip-rule="evenodd" d="M0 67.5299C0 60.8115 6.49294 56.0044 12.9188 57.9653L44.2917 67.5393C88.5833 81.0557 177.167 108.089 265.75 110.792C354.333 113.495 442.917 91.8688 531.5 102.682C620.083 113.495 708.667 156.748 797.25 159.451C885.833 162.154 974.417 124.308 1018.71 105.385L1049.07 92.4132C1055.67 89.5945 1063 94.4348 1063 101.609V190C1063 195.523 1058.52 200 1053 200H1018.71C974.417 200 885.833 200 797.25 200C708.667 200 620.083 200 531.5 200C442.917 200 354.333 200 265.75 200C177.167 200 88.5833 200 44.2917 200H10C4.47716 200 0 195.523 0 190V67.5299Z" fill="#4869F6"/>
</svg>
