<svg width="35" height="35" viewBox="0 0 35 35" fill="none" xmlns="http://www.w3.org/2000/svg">
<path d="M14.9092 11.4276C14.9092 12.3163 14.9092 13.1776 15.1895 13.9843C12.2432 17.4433 4.46387 26.5829 3.73926 27.2802C3.59524 27.4094 3.48004 27.5675 3.40113 27.7441C3.32222 27.9208 3.28137 28.1121 3.28125 28.3056C3.28125 28.8866 3.63672 29.4472 3.9375 29.7616C4.38867 30.2333 6.31641 32.0175 6.67188 31.6757C7.72461 30.6503 7.93652 30.3769 8.36719 29.953C9.0166 29.3173 8.29883 28.0185 8.52441 27.4921C8.75 26.9657 8.98926 26.8632 9.37891 26.7812C9.76855 26.6991 10.459 26.9794 10.999 26.9862C11.5664 26.9931 11.874 26.7538 12.2979 26.3573C12.6396 26.0429 12.8857 25.7489 12.8926 25.2909C12.9062 24.6757 12.0176 23.8622 12.6807 23.2128C13.3438 22.5634 14.3008 23.6366 15.0049 23.5546C15.709 23.4726 16.5635 22.495 16.6523 22.078C16.7412 21.661 15.8525 20.5878 15.9893 19.9794C16.0371 19.7743 16.4541 19.2958 16.7686 19.2274C17.083 19.1591 18.4775 19.6991 18.792 19.6308C19.1748 19.5487 19.6191 19.1454 19.9814 18.9198C21.041 19.3778 22.0049 19.5624 23.2422 19.5624C27.9248 19.5624 31.7188 15.912 31.7188 11.414C31.7188 6.91592 27.9248 3.28125 23.2422 3.28125C18.5596 3.28125 14.9092 6.92959 14.9092 11.4276ZM27.3438 9.84375C27.3438 10.2764 27.2155 10.6993 26.9751 11.0591C26.7347 11.4188 26.3931 11.6992 25.9934 11.8647C25.5937 12.0303 25.1538 12.0736 24.7295 11.9892C24.3052 11.9048 23.9154 11.6965 23.6095 11.3905C23.3035 11.0846 23.0952 10.6948 23.0108 10.2705C22.9264 9.84618 22.9697 9.40634 23.1353 9.00663C23.3008 8.60692 23.5812 8.26528 23.9409 8.02491C24.3007 7.78454 24.7236 7.65625 25.1562 7.65625C25.7364 7.65625 26.2928 7.88672 26.703 8.29695C27.1133 8.70719 27.3438 9.26359 27.3438 9.84375Z" fill="white"/>
</svg>
