<svg width="45" height="45" viewBox="0 0 45 45" fill="none" xmlns="http://www.w3.org/2000/svg">
<circle cx="23" cy="18" r="15" fill="#404446"/>
<path d="M22.5 0C10.1025 0 0 10.1025 0 22.5C0 34.8975 10.1025 45 22.5 45C34.8975 45 45 34.8975 45 22.5C45 10.1025 34.8975 0 22.5 0ZM30.06 27.675C30.7125 28.3275 30.7125 29.4075 30.06 30.06C29.7225 30.3975 29.295 30.555 28.8675 30.555C28.44 30.555 28.0125 30.3975 27.675 30.06L22.5 24.885L17.325 30.06C16.9875 30.3975 16.56 30.555 16.1325 30.555C15.705 30.555 15.2775 30.3975 14.94 30.06C14.2875 29.4075 14.2875 28.3275 14.94 27.675L20.115 22.5L14.94 17.325C14.2875 16.6725 14.2875 15.5925 14.94 14.94C15.5925 14.2875 16.6725 14.2875 17.325 14.94L22.5 20.115L27.675 14.94C28.3275 14.2875 29.4075 14.2875 30.06 14.94C30.7125 15.5925 30.7125 16.6725 30.06 17.325L24.885 22.5L30.06 27.675Z" fill="#DEE0E6"/>
</svg>
