<svg width="1029" height="243" viewBox="0 0 1029 243" fill="none" xmlns="http://www.w3.org/2000/svg">
<path fill-rule="evenodd" clip-rule="evenodd" d="M0 16.5412C0 9.02133 7.98819 4.19205 14.6468 7.68638L42.875 22.5C85.75 45 171.5 90 257.25 94.5C343 99 428.75 63 514.5 81C600.25 99 686 171 771.75 175.5C857.5 180 943.25 117 986.125 85.5L1013.08 65.6969C1019.68 60.8448 1029 65.5606 1029 73.7557V233C1029 238.523 1024.52 243 1019 243H986.125C943.25 243 857.5 243 771.75 243C686 243 600.25 243 514.5 243C428.75 243 343 243 257.25 243C171.5 243 85.75 243 42.875 243H10C4.47715 243 0 238.523 0 233V16.5412Z" fill="#4869F6" fill-opacity="0.1"/>
<path fill-rule="evenodd" clip-rule="evenodd" d="M0 80.1767C0 73.1648 7.02888 68.3302 13.5769 70.8383L42.875 82.0604C85.75 98.4828 171.5 131.328 257.25 134.612C343 137.897 428.75 111.621 514.5 124.759C600.25 137.897 686 190.448 771.75 193.733C857.5 197.017 943.25 151.034 986.125 128.043L1014.27 112.948C1020.94 109.376 1029 114.202 1029 121.761V233C1029 238.523 1024.52 243 1019 243H986.125C943.25 243 857.5 243 771.75 243C686 243 600.25 243 514.5 243C428.75 243 343 243 257.25 243C171.5 243 85.75 243 42.875 243H10C4.47715 243 0 238.523 0 233V80.1767Z" fill="#4869F6"/>
</svg>
