<svg width="1029" height="348" viewBox="0 0 1029 348" fill="none" xmlns="http://www.w3.org/2000/svg">
<path fill-rule="evenodd" clip-rule="evenodd" d="M0 20.0246C0 11.7796 9.41675 7.07705 16.0079 12.0305L42.875 32.2222C85.75 64.4444 171.5 128.889 257.25 135.333C343 141.778 428.75 90.2222 514.5 116C600.25 141.778 686 244.889 771.75 251.333C857.5 257.778 943.25 167.556 986.125 122.444L1011.75 95.4813C1017.97 88.9345 1029 93.3384 1029 102.37V338C1029 343.523 1024.52 348 1019 348H986.125C943.25 348 857.5 348 771.75 348C686 348 600.25 348 514.5 348C428.75 348 343 348 257.25 348C171.5 348 85.75 348 42.875 348H10C4.47715 348 0 343.523 0 338V20.0246Z" fill="#4869F6" fill-opacity="0.1"/>
<path fill-rule="evenodd" clip-rule="evenodd" d="M0 110.891C0 103.29 8.14505 98.4679 14.8093 102.123L42.875 117.519C85.75 141.037 171.5 188.074 257.25 192.778C343 197.481 428.75 159.852 514.5 178.667C600.25 197.481 686 272.741 771.75 277.444C857.5 282.148 943.25 216.296 986.125 183.37L1012.91 162.801C1019.49 157.75 1029 162.439 1029 170.732V338C1029 343.523 1024.52 348 1019 348H986.125C943.25 348 857.5 348 771.75 348C686 348 600.25 348 514.5 348C428.75 348 343 348 257.25 348C171.5 348 85.75 348 42.875 348H10C4.47715 348 0 343.523 0 338V110.891Z" fill="#4869F6"/>
</svg>
