<svg width="40" height="40" viewBox="0 0 40 40" fill="none" xmlns="http://www.w3.org/2000/svg">
<rect x="1.5" y="1.5" width="37" height="37" rx="3.5" fill="#4869F6" stroke="#4869F6" stroke-width="3"/>
<path d="M29.5347 13.9841C29.4833 13.8841 29.409 13.7977 29.3178 13.7318C29.2266 13.666 29.1211 13.6226 29.01 13.6052C28.8989 13.5878 28.7852 13.5969 28.6782 13.6317C28.5713 13.6665 28.474 13.7261 28.3945 13.8056L25.6514 16.5495C25.5168 16.6821 25.3353 16.7565 25.1463 16.7565C24.9572 16.7565 24.7758 16.6821 24.6411 16.5495L23.4553 15.3623C23.389 15.296 23.3363 15.2173 23.3004 15.1306C23.2645 15.044 23.246 14.9511 23.246 14.8573C23.246 14.7635 23.2645 14.6707 23.3004 14.584C23.3363 14.4974 23.389 14.4187 23.4553 14.3523L26.1867 11.6214C26.2686 11.5396 26.3294 11.4391 26.3638 11.3285C26.3982 11.218 26.4052 11.1008 26.3842 10.987C26.3632 10.8731 26.3148 10.7661 26.2432 10.6751C26.1717 10.5841 26.079 10.5119 25.9733 10.4646C23.9103 9.54256 21.3351 10.0237 19.7113 11.6348C18.3318 13.0041 17.9206 15.1436 18.584 17.505C18.6198 17.6309 18.62 17.7643 18.5846 17.8903C18.5492 18.0164 18.4796 18.1302 18.3836 18.2191L10.9509 25.0051C10.6614 25.265 10.4278 25.5811 10.2645 25.9342C10.1012 26.2873 10.0115 26.6699 10.001 27.0588C9.99054 27.4476 10.0594 27.8346 10.2034 28.196C10.3474 28.5573 10.5636 28.8856 10.8387 29.1607C11.1138 29.4359 11.4421 29.6521 11.8035 29.7962C12.165 29.9403 12.552 30.0093 12.941 29.999C13.33 29.9887 13.7128 29.8992 14.0661 29.7361C14.4194 29.573 14.7357 29.3397 14.9958 29.0504L21.857 21.6038C21.9447 21.509 22.0566 21.4399 22.1807 21.404C22.3047 21.368 22.4362 21.3666 22.5611 21.3999C23.2336 21.5841 23.9273 21.6797 24.6246 21.6842C26.1158 21.6842 27.4243 21.2017 28.3681 20.2721C30.116 18.5507 30.3826 15.631 29.5347 13.9841ZM13.0131 28.5617C12.7191 28.5937 12.4223 28.5338 12.1638 28.3901C11.9053 28.2464 11.6978 28.0261 11.5699 27.7595C11.442 27.4929 11.4 27.1931 11.4498 26.9017C11.4995 26.6102 11.6386 26.3414 11.8477 26.1322C12.0568 25.9231 12.3257 25.7841 12.6172 25.7342C12.9088 25.6844 13.2086 25.7262 13.4754 25.854C13.7421 25.9817 13.9626 26.1891 14.1065 26.4475C14.2503 26.7058 14.3104 27.0025 14.2784 27.2964C14.2432 27.6198 14.0986 27.9215 13.8685 28.1516C13.6384 28.3817 13.3366 28.5264 13.0131 28.5617Z" fill="#F9FAFB"/>
</svg>
