<svg width="60" height="60" viewBox="0 0 60 60" fill="none" xmlns="http://www.w3.org/2000/svg">
<path d="M25.409 8C21.768 8 18.2089 9.07967 15.1815 11.1025C12.1542 13.1253 9.79464 16.0004 8.40131 19.3642C7.00798 22.728 6.64342 26.4294 7.35373 30.0004C8.06405 33.5714 9.81733 36.8516 12.3919 39.4261C14.9664 42.0006 18.2466 43.7539 21.8176 44.4642C25.3886 45.1746 29.09 44.81 32.4538 43.4167C35.8176 42.0233 38.6927 39.6638 40.7155 36.6365C42.7383 33.6091 43.818 30.0499 43.818 26.409C43.8177 21.5267 41.8781 16.8445 38.4258 13.3922C34.9735 9.93992 30.2913 8.00031 25.409 8Z" stroke="#737B98" stroke-width="6" stroke-miterlimit="10"/>
<path d="M37.7798 41.2284L51.0773 53.6285" stroke="#737B98" stroke-width="6" stroke-miterlimit="10" stroke-linecap="round"/>
</svg>
