<svg width="1920" height="200" viewBox="0 0 1920 200" fill="none" xmlns="http://www.w3.org/2000/svg">
<path fill-rule="evenodd" clip-rule="evenodd" d="M3 0L83 14.4444C163 28.8889 323 57.7778 483 60.6667C643 63.5556 803 40.4444 963 52C1123 63.5556 1283 109.778 1443 112.667C1603 115.556 1763 75.1111 1843 54.8889L1923 34.6667V156H1843C1763 156 1603 156 1443 156C1283 156 1123 156 963 156C803 156 643 156 483 156C323 156 163 156 83 156H3V0Z" fill="#4869F6" fill-opacity="0.1"/>
<path fill-rule="evenodd" clip-rule="evenodd" d="M-11 54L70.3333 67.5185C151.667 81.037 314.333 108.074 477 110.778C639.667 113.481 802.333 91.8519 965 102.667C1127.67 113.481 1290.33 156.741 1453 159.444C1615.67 162.148 1778.33 124.296 1859.67 105.37L1941 86.4444V200H1859.67C1778.33 200 1615.67 200 1453 200C1290.33 200 1127.67 200 965 200C802.333 200 639.667 200 477 200C314.333 200 151.667 200 70.3333 200H-11V54Z" fill="#4869F6"/>
</svg>
