<svg width="1920" height="256" viewBox="0 0 1920 256" fill="none" xmlns="http://www.w3.org/2000/svg">
<path fill-rule="evenodd" clip-rule="evenodd" d="M0 0L80 23.7037C160 47.4074 320 94.8148 480 99.5556C640 104.296 800 66.3704 960 85.3333C1120 104.296 1280 180.148 1440 184.889C1600 189.63 1760 123.259 1840 90.0741L1920 56.8889V256H1840C1760 256 1600 256 1440 256C1280 256 1120 256 960 256C800 256 640 256 480 256C320 256 160 256 80 256H0V0Z" fill="#4869F6" fill-opacity="0.1"/>
<path fill-rule="evenodd" clip-rule="evenodd" d="M-17 80L64.3333 96.2963C145.667 112.593 308.333 145.185 471 148.444C633.667 151.704 796.333 125.63 959 138.667C1121.67 151.704 1284.33 203.852 1447 207.111C1609.67 210.37 1772.33 164.741 1853.67 141.926L1935 119.111V256H1853.67C1772.33 256 1609.67 256 1447 256C1284.33 256 1121.67 256 959 256C796.333 256 633.667 256 471 256C308.333 256 145.667 256 64.3333 256H-17V80Z" fill="#4869F6"/>
</svg>
