<svg width="35" height="35" viewBox="0 0 35 35" fill="none" xmlns="http://www.w3.org/2000/svg">
<path d="M22.739 4.41465C21.4087 2.97842 19.5507 2.1875 17.4999 2.1875C15.4382 2.1875 13.574 2.97363 12.2499 4.40098C10.9114 5.84404 10.2593 7.80527 10.4124 9.92305C10.7159 14.1012 13.8953 17.5 17.4999 17.5C21.1045 17.5 24.2784 14.1019 24.5867 9.92441C24.7419 7.82578 24.0856 5.86865 22.739 4.41465ZM29.5312 32.8125H5.46865C5.1537 32.8166 4.84179 32.7504 4.55562 32.6188C4.26945 32.4872 4.01622 32.2935 3.81436 32.0517C3.37002 31.5205 3.19092 30.7952 3.32354 30.0617C3.90049 26.8611 5.70108 24.1726 8.53115 22.2852C11.0454 20.6097 14.2303 19.6875 17.4999 19.6875C20.7695 19.6875 23.9544 20.6104 26.4687 22.2852C29.2987 24.1719 31.0993 26.8604 31.6763 30.061C31.8089 30.7945 31.6298 31.5198 31.1855 32.051C30.9837 32.2929 30.7304 32.4868 30.4443 32.6185C30.1581 32.7502 29.8462 32.8165 29.5312 32.8125Z" fill="white"/>
</svg>
